{
  "accessors": [
    {
      "bufferView": 2,
      "componentType": 5126,
      "count": 1051,
      "max": [
        0.5175714492797852,
        0.5175716280937195,
        2.111365795135498
      ],
      "min": [
        -0.7630380392074585,
        -0.5175713896751404,
        0.28787100315093994
      ],
      "type": "VEC3"
    },
    {
      "bufferView": 2,
      "byteOffset": 12612,
      "componentType": 5126,
      "count": 1051,
      "max": [
        0.9913203120231628,
        0.9951810836791992,
        0.9949445724487305
      ],
      "min": [
        -0.9993332624435425,
        -0.9951810836791992,
        -1.0
      ],
      "type": "VEC3"
    },
    {
      "bufferView": 1,
      "componentType": 5126,
      "count": 1051,
      "max": [
        0.0,
        0.0
      ],
      "min": [
        0.0,
        0.0
      ],
      "type": "VEC2"
    },
    {
      "bufferView": 0,
      "componentType": 5125,
      "count": 2271,
      "type": "SCALAR"
    },
    {
      "bufferView": 2,
      "byteOffset": 25224,
      "componentType": 5126,
      "count": 453,
      "max": [
        0.7487473487854004,
        0.7487474679946899,
        1.4622106552124023
      ],
      "min": [
        -0.7445890307426453,
        -0.7487473487854004,
        -1.2172470092773438
      ],
      "type": "VEC3"
    },
    {
      "bufferView": 2,
      "byteOffset": 30660,
      "componentType": 5126,
      "count": 453,
      "max": [
        1.0,
        1.0,
        0.39434462785720825
      ],
      "min": [
        -1.0,
        -1.0,
        -1.0
      ],
      "type": "VEC3"
    },
    {
      "bufferView": 1,
      "byteOffset": 8408,
      "componentType": 5126,
      "count": 453,
      "max": [
        0.0,
        0.0
      ],
      "min": [
        0.0,
        0.0
      ],
      "type": "VEC2"
    },
    {
      "bufferView": 0,
      "byteOffset": 9084,
      "componentType": 5125,
      "count": 2019,
      "type": "SCALAR"
    },
    {
      "bufferView": 2,
      "byteOffset": 36096,
      "componentType": 5126,
      "count": 160,
      "max": [
        1.0,
        1.4264041185379028,
        1.2408674955368042
      ],
      "min": [
        0.6249101161956787,
        -4.443404674530029,
        -1.9361034631729126
      ],
      "type": "VEC3"
    },
    {
      "bufferView": 2,
      "byteOffset": 38016,
      "componentType": 5126,
      "count": 160,
      "max": [
        1.0,
        0.8922375440597534,
        1.0
      ],
      "min": [
        -1.0,
        -0.9964333772659302,
        -0.9981523156166077
      ],
      "type": "VEC3"
    },
    {
      "bufferView": 1,
      "byteOffset": 12032,
      "componentType": 5126,
      "count": 160,
      "max": [
        0.875,
        1.0
      ],
      "min": [
        0.125,
        0.0
      ],
      "type": "VEC2"
    },
    {
      "bufferView": 0,
      "byteOffset": 17160,
      "componentType": 5125,
      "count": 426,
      "type": "SCALAR"
    },
    {
      "bufferView": 2,
      "byteOffset": 39936,
      "componentType": 5126,
      "count": 160,
      "max": [
        1.0,
        1.4264041185379028,
        1.2408674955368042
      ],
      "min": [
        0.6249101161956787,
        -4.443404674530029,
        -1.9361034631729126
      ],
      "type": "VEC3"
    },
    {
      "bufferView": 2,
      "byteOffset": 41856,
      "componentType": 5126,
      "count": 160,
      "max": [
        1.0,
        0.8922375440597534,
        1.0
      ],
      "min": [
        -1.0,
        -0.9964333772659302,
        -0.9981523156166077
      ],
      "type": "VEC3"
    },
    {
      "bufferView": 1,
      "byteOffset": 13312,
      "componentType": 5126,
      "count": 160,
      "max": [
        0.875,
        1.0
      ],
      "min": [
        0.125,
        0.0
      ],
      "type": "VEC2"
    },
    {
      "bufferView": 0,
      "byteOffset": 18864,
      "componentType": 5125,
      "count": 426,
      "type": "SCALAR"
    },
    {
      "bufferView": 2,
      "byteOffset": 43776,
      "componentType": 5126,
      "count": 160,
      "max": [
        1.0,
        1.4264041185379028,
        1.2408674955368042
      ],
      "min": [
        0.6249101161956787,
        -4.443404674530029,
        -1.9361034631729126
      ],
      "type": "VEC3"
    },
    {
      "bufferView": 2,
      "byteOffset": 45696,
      "componentType": 5126,
      "count": 160,
      "max": [
        1.0,
        0.8922375440597534,
        1.0
      ],
      "min": [
        -1.0,
        -0.9964333772659302,
        -0.9981523156166077
      ],
      "type": "VEC3"
    },
    {
      "bufferView": 1,
      "byteOffset": 14592,
      "componentType": 5126,
      "count": 160,
      "max": [
        0.875,
        1.0
      ],
      "min": [
        0.125,
        0.0
      ],
      "type": "VEC2"
    },
    {
      "bufferView": 0,
      "byteOffset": 20568,
      "componentType": 5125,
      "count": 426,
      "type": "SCALAR"
    },
    {
      "bufferView": 2,
      "byteOffset": 47616,
      "componentType": 5126,
      "count": 160,
      "max": [
        1.0,
        1.4264041185379028,
        1.2408674955368042
      ],
      "min": [
        0.6249101161956787,
        -4.443404674530029,
        -1.9361034631729126
      ],
      "type": "VEC3"
    },
    {
      "bufferView": 2,
      "byteOffset": 49536,
      "componentType": 5126,
      "count": 160,
      "max": [
        1.0,
        0.8922375440597534,
        1.0
      ],
      "min": [
        -1.0,
        -0.9964333772659302,
        -0.9981523156166077
      ],
      "type": "VEC3"
    },
    {
      "bufferView": 1,
      "byteOffset": 15872,
      "componentType": 5126,
      "count": 160,
      "max": [
        0.875,
        1.0
      ],
      "min": [
        0.125,
        0.0
      ],
      "type": "VEC2"
    },
    {
      "bufferView": 0,
      "byteOffset": 22272,
      "componentType": 5125,
      "count": 426,
      "type": "SCALAR"
    }
  ],
  "asset": {
    "extras": {
      "author": "sekar22.mhs (https://sketchfab.com/sekar22.mhs)",
      "license": "CC-BY-4.0 (http://creativecommons.org/licenses/by/4.0/)",
      "source": "https://sketchfab.com/3d-models/simple-rocket-design-5016b98603b04493bbb456e0c1df54da",
      "title": "Simple rocket design"
    },
    "generator": "Sketchfab-15.3.0",
    "version": "2.0"
  },
  "bufferViews": [
    {
      "buffer": 0,
      "byteLength": 23976,
      "name": "floatBufferViews",
      "target": 34963
    },
    {
      "buffer": 0,
      "byteLength": 17152,
      "byteOffset": 23976,
      "byteStride": 8,
      "name": "floatBufferViews",
      "target": 34962
    },
    {
      "buffer": 0,
      "byteLength": 51456,
      "byteOffset": 41128,
      "byteStride": 12,
      "name": "floatBufferViews",
      "target": 34962
    }
  ],
  "buffers": [
    {
      "byteLength": 92584,
      "uri": "scene.bin"
    }
  ],
  "materials": [
    {
      "doubleSided": true,
      "name": "Bahan",
      "pbrMetallicRoughness": {
        "baseColorFactor": [
          0.0,
          0.0,
          0.0,
          1.0
        ],
        "metallicFactor": 0.0
      }
    },
    {
      "doubleSided": true,
      "name": "Bahan.001",
      "pbrMetallicRoughness": {
        "baseColorFactor": [
          1.0,
          0.0446811,
          0.0,
          1.0
        ],
        "metallicFactor": 0.0,
        "roughnessFactor": 0.9453156332497895
      }
    }
  ],
  "meshes": [
    {
      "name": "Circle_Bahan_0",
      "primitives": [
        {
          "attributes": {
            "NORMAL": 1,
            "POSITION": 0,
            "TEXCOORD_0": 2
          },
          "indices": 3,
          "material": 0,
          "mode": 4
        }
      ]
    },
    {
      "name": "Circle_Bahan.001_0",
      "primitives": [
        {
          "attributes": {
            "NORMAL": 5,
            "POSITION": 4,
            "TEXCOORD_0": 6
          },
          "indices": 7,
          "material": 1,
          "mode": 4
        }
      ]
    },
    {
      "name": "Cube_Bahan_0",
      "primitives": [
        {
          "attributes": {
            "NORMAL": 9,
            "POSITION": 8,
            "TEXCOORD_0": 10
          },
          "indices": 11,
          "material": 0,
          "mode": 4
        }
      ]
    },
    {
      "name": "Cube.001_Bahan_0",
      "primitives": [
        {
          "attributes": {
            "NORMAL": 13,
            "POSITION": 12,
            "TEXCOORD_0": 14
          },
          "indices": 15,
          "material": 0,
          "mode": 4
        }
      ]
    },
    {
      "name": "Cube.002_Bahan_0",
      "primitives": [
        {
          "attributes": {
            "NORMAL": 17,
            "POSITION": 16,
            "TEXCOORD_0": 18
          },
          "indices": 19,
          "material": 0,
          "mode": 4
        }
      ]
    },
    {
      "name": "Cube.003_Bahan_0",
      "primitives": [
        {
          "attributes": {
            "NORMAL": 21,
            "POSITION": 20,
            "TEXCOORD_0": 22
          },
          "indices": 23,
          "material": 0,
          "mode": 4
        }
      ]
    }
  ],
  "nodes": [
    {
      "children": [
        1
      ],
      "matrix": [
        1.0,
        0.0,
        0.0,
        0.0,
        0.0,
        2.220446049250313e-16,
        -1.0,
        0.0,
        0.0,
        1.0,
        2.220446049250313e-16,
        0.0,
        0.0,
        0.0,
        0.0,
        1.0
      ],
      "name": "Sketchfab_model"
    },
    {
      "children": [
        2
      ],
      "matrix": [
        0.009999999776482582,
        0.0,
        0.0,
        0.0,
        0.0,
        0.0,
        0.009999999776482582,
        0.0,
        0.0,
        -0.009999999776482582,
        0.0,
        0.0,
        0.0,
        0.0,
        0.0,
        1.0
      ],
      "name": "df23bb13016f4bc98131eff29ce8f843.fbx"
    },
    {
      "children": [
        3,
        5,
        8,
        10,
        12,
        14
      ],
      "name": "RootNode"
    },
    {
      "children": [
        4
      ],
      "matrix": [
        -65.15581009765468,
        -44.527143038140764,
        -61.41704928909654,
        0.0,
        -32.40135466989878,
        89.5395708958271,
        -30.542085476036902,
        0.0,
        68.59207001076176,
        1.2755314797120858e-05,
        -72.76761921184276,
        0.0,
        287.5885925292969,
        429.1209716796875,
        582.04052734375,
        1.0
      ],
      "name": "Camera"
    },
    {
      "name": "Object_4"
    },
    {
      "children": [
        6,
        7
      ],
      "matrix": [
        100.0,
        0.0,
        0.0,
        0.0,
        -0.0,
        -1.629206793918314e-05,
        -99.99999999999868,
        0.0,
        0.0,
        99.99999999999868,
        -1.629206793918314e-05,
        0.0,
        -267.57208251953125,
        -1.8354684114456177,
        1.3797968626022339,
        1.0
      ],
      "name": "Circle"
    },
    {
      "mesh": 0,
      "name": "Circle_Bahan_0"
    },
    {
      "mesh": 1,
      "name": "Circle_Bahan.001_0"
    },
    {
      "children": [
        9
      ],
      "matrix": [
        20.688867568969727,
        4.244805082940054e-15,
        2.8374058972145957e-15,
        0.0,
        -2.8374057086723357e-15,
        19.116902117222235,
        -7.910328357717604,
        0.0,
        -4.244805208969609e-15,
        7.910328357717604,
        19.116902117222235,
        0.0,
        -282.2083435058594,
        -54.3269157409668,
        -68.77010345458984,
        1.0
      ],
      "name": "Cube"
    },
    {
      "mesh": 2,
      "name": "Cube_Bahan_0"
    },
    {
      "children": [
        11
      ],
      "matrix": [
        -20.688867568969496,
        -2.0909061494889157e-14,
        3.1239320910059118e-06,
        0.0,
        1.1944263321794869e-06,
        19.116902117222235,
        7.910328357717519,
        0.0,
        -2.8865719194596254e-06,
        7.910328357717609,
        -19.116902117222025,
        0.0,
        -250.41168212890625,
        -54.3269157409668,
        76.71846771240234,
        1.0
      ],
      "name": "Cube.001"
    },
    {
      "mesh": 3,
      "name": "Cube.001_Bahan_0"
    },
    {
      "children": [
        13
      ],
      "matrix": [
        0.3439760972217329,
        5.522929905732763e-07,
        20.686007873219694,
        0.0,
        7.90927433383941,
        19.11688581958637,
        -0.13151942569132932,
        0.0,
        -19.11424341277929,
        7.910367744123196,
        0.3178398907091796,
        0.0,
        -193.82180786132813,
        -54.3269157409668,
        -16.140769958496094,
        1.0
      ],
      "name": "Cube.002"
    },
    {
      "mesh": 4,
      "name": "Cube.002_Bahan_0"
    },
    {
      "children": [
        15
      ],
      "matrix": [
        -0.34398530354334694,
        -1.2040156068954839e-07,
        -20.68600772013086,
        0.0,
        -7.909197731104996,
        19.116917501253713,
        0.1315210512062289,
        0.0,
        19.114274944334067,
        7.9102911790038934,
        -0.3178491814421268,
        0.0,
        -345.5687561035156,
        -54.3269157409668,
        18.461015701293945,
        1.0
      ],
      "name": "Cube.003"
    },
    {
      "mesh": 5,
      "name": "Cube.003_Bahan_0"
    }
  ],
  "scene": 0,
  "scenes": [
    {
      "name": "Sketchfab_Scene",
      "nodes": [
        0
      ]
    }
  ]
}
